<mxfile host="app.diagrams.net" modified="2022-08-25T02:52:24.739Z" agent="5.0 (Macintosh; Intel Mac OS X 10_15_7) AppleWebKit/537.36 (KHTML, like Gecko) Chrome/104.0.0.0 Safari/537.36" etag="O2xDxx48P_DlSevCRZRT" version="20.2.6" type="github">
  <diagram id="Nb7SrBwUNyfBFZtkWoBL" name="第 1 页">
    <mxGraphModel dx="1426" dy="623" grid="1" gridSize="10" guides="1" tooltips="1" connect="1" arrows="1" fold="1" page="1" pageScale="1" pageWidth="827" pageHeight="1169" math="0" shadow="0">
      <root>
        <mxCell id="0" />
        <mxCell id="1" parent="0" />
        <mxCell id="yaUXc8Uz1TG8N-41KsA_-1" value="&lt;span style=&quot;font-size: 24px;&quot;&gt;消息通知&lt;/span&gt;" style="rounded=0;whiteSpace=wrap;html=1;strokeColor=#97D077;" vertex="1" parent="1">
          <mxGeometry x="380" y="270" width="120" height="50" as="geometry" />
        </mxCell>
        <mxCell id="yaUXc8Uz1TG8N-41KsA_-2" value="&lt;span style=&quot;font-size: 24px;&quot;&gt;通知方式&lt;/span&gt;" style="ellipse;whiteSpace=wrap;html=1;strokeColor=#97D077;" vertex="1" parent="1">
          <mxGeometry x="90" y="250" width="130" height="50" as="geometry" />
        </mxCell>
        <mxCell id="yaUXc8Uz1TG8N-41KsA_-3" value="&lt;span style=&quot;font-size: 24px;&quot;&gt;用户id&lt;/span&gt;" style="ellipse;whiteSpace=wrap;html=1;strokeColor=#97D077;" vertex="1" parent="1">
          <mxGeometry x="150" y="340" width="130" height="50" as="geometry" />
        </mxCell>
        <mxCell id="yaUXc8Uz1TG8N-41KsA_-4" value="&lt;span style=&quot;font-size: 24px;&quot;&gt;产品id&lt;/span&gt;" style="ellipse;whiteSpace=wrap;html=1;strokeColor=#97D077;" vertex="1" parent="1">
          <mxGeometry x="260" y="410" width="130" height="50" as="geometry" />
        </mxCell>
        <mxCell id="yaUXc8Uz1TG8N-41KsA_-5" value="&lt;span style=&quot;font-size: 24px;&quot;&gt;发布时间&lt;/span&gt;" style="ellipse;whiteSpace=wrap;html=1;strokeColor=#97D077;" vertex="1" parent="1">
          <mxGeometry x="450" y="410" width="130" height="50" as="geometry" />
        </mxCell>
        <mxCell id="yaUXc8Uz1TG8N-41KsA_-6" value="&lt;span style=&quot;font-size: 24px;&quot;&gt;内容&lt;/span&gt;" style="ellipse;whiteSpace=wrap;html=1;strokeColor=#97D077;" vertex="1" parent="1">
          <mxGeometry x="580" y="340" width="130" height="50" as="geometry" />
        </mxCell>
        <mxCell id="yaUXc8Uz1TG8N-41KsA_-7" value="&lt;span style=&quot;font-size: 24px;&quot;&gt;图片&lt;/span&gt;" style="ellipse;whiteSpace=wrap;html=1;strokeColor=#97D077;" vertex="1" parent="1">
          <mxGeometry x="610" y="240" width="130" height="50" as="geometry" />
        </mxCell>
        <mxCell id="yaUXc8Uz1TG8N-41KsA_-8" value="&lt;span style=&quot;font-size: 24px;&quot;&gt;通知类型&lt;/span&gt;" style="ellipse;whiteSpace=wrap;html=1;strokeColor=#97D077;" vertex="1" parent="1">
          <mxGeometry x="520" y="150" width="130" height="50" as="geometry" />
        </mxCell>
        <mxCell id="yaUXc8Uz1TG8N-41KsA_-9" value="&lt;span style=&quot;font-size: 24px;&quot;&gt;标题&lt;/span&gt;" style="ellipse;whiteSpace=wrap;html=1;strokeColor=#97D077;" vertex="1" parent="1">
          <mxGeometry x="349" y="120" width="130" height="50" as="geometry" />
        </mxCell>
        <mxCell id="yaUXc8Uz1TG8N-41KsA_-10" value="&lt;span style=&quot;font-size: 24px;&quot;&gt;通知状态&lt;/span&gt;" style="ellipse;whiteSpace=wrap;html=1;strokeColor=#97D077;" vertex="1" parent="1">
          <mxGeometry x="190" y="160" width="130" height="50" as="geometry" />
        </mxCell>
        <mxCell id="yaUXc8Uz1TG8N-41KsA_-11" value="" style="endArrow=classic;html=1;rounded=0;exitX=0;exitY=0.75;exitDx=0;exitDy=0;strokeColor=#3399FF;entryX=1;entryY=0;entryDx=0;entryDy=0;" edge="1" parent="1" source="yaUXc8Uz1TG8N-41KsA_-1" target="yaUXc8Uz1TG8N-41KsA_-3">
          <mxGeometry width="50" height="50" relative="1" as="geometry">
            <mxPoint x="390" y="325" as="sourcePoint" />
            <mxPoint x="290" y="325" as="targetPoint" />
          </mxGeometry>
        </mxCell>
        <mxCell id="yaUXc8Uz1TG8N-41KsA_-12" value="" style="endArrow=classic;html=1;rounded=0;exitX=0.25;exitY=1;exitDx=0;exitDy=0;strokeColor=#3399FF;" edge="1" parent="1" source="yaUXc8Uz1TG8N-41KsA_-1" target="yaUXc8Uz1TG8N-41KsA_-4">
          <mxGeometry width="50" height="50" relative="1" as="geometry">
            <mxPoint x="400" y="335" as="sourcePoint" />
            <mxPoint x="300" y="335" as="targetPoint" />
          </mxGeometry>
        </mxCell>
        <mxCell id="yaUXc8Uz1TG8N-41KsA_-13" value="" style="endArrow=classic;html=1;rounded=0;exitX=0.75;exitY=1;exitDx=0;exitDy=0;strokeColor=#3399FF;entryX=0.5;entryY=0;entryDx=0;entryDy=0;" edge="1" parent="1" source="yaUXc8Uz1TG8N-41KsA_-1" target="yaUXc8Uz1TG8N-41KsA_-5">
          <mxGeometry width="50" height="50" relative="1" as="geometry">
            <mxPoint x="410" y="345" as="sourcePoint" />
            <mxPoint x="310" y="345" as="targetPoint" />
          </mxGeometry>
        </mxCell>
        <mxCell id="yaUXc8Uz1TG8N-41KsA_-14" value="" style="endArrow=classic;html=1;rounded=0;exitX=1;exitY=0.75;exitDx=0;exitDy=0;strokeColor=#3399FF;" edge="1" parent="1" source="yaUXc8Uz1TG8N-41KsA_-1" target="yaUXc8Uz1TG8N-41KsA_-6">
          <mxGeometry width="50" height="50" relative="1" as="geometry">
            <mxPoint x="420" y="355" as="sourcePoint" />
            <mxPoint x="320" y="355" as="targetPoint" />
          </mxGeometry>
        </mxCell>
        <mxCell id="yaUXc8Uz1TG8N-41KsA_-15" value="" style="endArrow=classic;html=1;rounded=0;exitX=1;exitY=0.25;exitDx=0;exitDy=0;strokeColor=#3399FF;entryX=0;entryY=1;entryDx=0;entryDy=0;" edge="1" parent="1" source="yaUXc8Uz1TG8N-41KsA_-1" target="yaUXc8Uz1TG8N-41KsA_-7">
          <mxGeometry width="50" height="50" relative="1" as="geometry">
            <mxPoint x="430" y="365" as="sourcePoint" />
            <mxPoint x="330" y="365" as="targetPoint" />
          </mxGeometry>
        </mxCell>
        <mxCell id="yaUXc8Uz1TG8N-41KsA_-16" value="" style="endArrow=classic;html=1;rounded=0;exitX=0.75;exitY=0;exitDx=0;exitDy=0;strokeColor=#3399FF;" edge="1" parent="1" source="yaUXc8Uz1TG8N-41KsA_-1" target="yaUXc8Uz1TG8N-41KsA_-8">
          <mxGeometry width="50" height="50" relative="1" as="geometry">
            <mxPoint x="440" y="375" as="sourcePoint" />
            <mxPoint x="340" y="375" as="targetPoint" />
          </mxGeometry>
        </mxCell>
        <mxCell id="yaUXc8Uz1TG8N-41KsA_-17" value="" style="endArrow=classic;html=1;rounded=0;exitX=0.5;exitY=0;exitDx=0;exitDy=0;strokeColor=#3399FF;" edge="1" parent="1" source="yaUXc8Uz1TG8N-41KsA_-1" target="yaUXc8Uz1TG8N-41KsA_-9">
          <mxGeometry width="50" height="50" relative="1" as="geometry">
            <mxPoint x="450" y="385" as="sourcePoint" />
            <mxPoint x="350" y="385" as="targetPoint" />
          </mxGeometry>
        </mxCell>
        <mxCell id="yaUXc8Uz1TG8N-41KsA_-18" value="" style="endArrow=classic;html=1;rounded=0;exitX=0.25;exitY=0;exitDx=0;exitDy=0;strokeColor=#3399FF;entryX=1;entryY=1;entryDx=0;entryDy=0;" edge="1" parent="1" source="yaUXc8Uz1TG8N-41KsA_-1" target="yaUXc8Uz1TG8N-41KsA_-10">
          <mxGeometry width="50" height="50" relative="1" as="geometry">
            <mxPoint x="460" y="395" as="sourcePoint" />
            <mxPoint x="360" y="395" as="targetPoint" />
          </mxGeometry>
        </mxCell>
        <mxCell id="yaUXc8Uz1TG8N-41KsA_-19" value="" style="endArrow=classic;html=1;rounded=0;exitX=0;exitY=0.25;exitDx=0;exitDy=0;strokeColor=#3399FF;" edge="1" parent="1" source="yaUXc8Uz1TG8N-41KsA_-1" target="yaUXc8Uz1TG8N-41KsA_-2">
          <mxGeometry width="50" height="50" relative="1" as="geometry">
            <mxPoint x="470" y="405" as="sourcePoint" />
            <mxPoint x="370" y="405" as="targetPoint" />
          </mxGeometry>
        </mxCell>
      </root>
    </mxGraphModel>
  </diagram>
</mxfile>
